<svg viewBox="20 0 200 200" xmlns="http://www.w3.org/2000/svg">
  <path fill="#343A40" d="M24.3,-51C28.9,-39.6,28,-27.6,37.8,-19C47.6,-10.5,68,-5.2,67.5,-0.3C67,4.6,45.5,9.3,38.2,22C30.8,34.8,37.5,55.6,33.5,69.9C29.4,84.3,14.7,92.1,3.3,86.3C-8.1,80.6,-16.2,61.3,-20.6,47.3C-25,33.2,-25.8,24.2,-32.1,17.2C-38.5,10.2,-50.5,5.1,-60.1,-5.6C-69.7,-16.2,-77,-32.4,-73.6,-44.5C-70.1,-56.6,-56,-64.5,-41.9,-70.5C-27.9,-76.4,-14,-80.2,-2,-76.7C9.9,-73.2,19.8,-62.4,24.3,-51Z" transform="translate(100 100)" />
</svg>